<svg xmlns="http://www.w3.org/2000/svg" xmlns:xlink="http://www.w3.org/1999/xlink" width="500" zoomAndPan="magnify" viewBox="0 0 375 374.999991" height="500" preserveAspectRatio="xMidYMid meet" version="1.0"><defs><clipPath id="7e479bcea6"><path d="M 0 42.273438 L 375 42.273438 L 375 337 L 0 337 Z M 0 42.273438 " clip-rule="nonzero"/></clipPath></defs><g clip-path="url(#7e479bcea6)"><path fill="#7b66ff" d="M 190.273438 142.976562 C 203.136719 131.152344 216.785156 120.191406 231.132812 110.175781 C 237.539062 110.046875 243.933594 110.269531 250.277344 110.832031 L 251.5625 110.953125 C 243.417969 115.964844 235.503906 121.34375 227.839844 127.050781 C 211.367188 139.335938 196.039062 153.234375 182.09375 168.5625 C 176.644531 168.644531 171.214844 168.847656 165.820312 169.191406 L 164.242188 169.292969 C 172.484375 160.125 181.175781 151.34375 190.273438 142.976562 Z M 294.207031 178.359375 C 276.578125 187.242188 254.394531 197.320312 235.167969 202.476562 L 226.121094 219.972656 C 245.765625 214.707031 266.609375 207.632812 284.800781 198.457031 Z M 21.476562 242.996094 C 17.773438 245.144531 13.023438 243.882812 10.871094 240.179688 C 8.722656 236.476562 9.984375 231.726562 13.6875 229.578125 L 98.90625 180.355469 L 98.90625 128.566406 L 98.921875 128.542969 C 98.921875 122.421875 100.4375 116.726562 103.277344 111.808594 C 106.117188 106.882812 110.289062 102.726562 115.59375 99.667969 L 161.078125 73.40625 L 161.09375 73.382812 L 206.578125 47.125 C 211.875 44.085938 217.5625 42.5625 223.25 42.5625 L 223.273438 42.578125 C 229.023438 42.578125 234.71875 44.09375 239.960938 47.117188 L 296.460938 79.734375 L 278.289062 85.773438 L 232.796875 59.511719 C 229.703125 57.726562 226.453125 56.832031 223.265625 56.832031 C 220.011719 56.847656 216.746094 57.726562 213.699219 59.480469 L 213.683594 59.503906 L 168.199219 85.765625 L 122.722656 112 C 119.6875 113.753906 117.289062 116.148438 115.65625 118.980469 C 114.03125 121.800781 113.160156 125.0625 113.152344 128.558594 L 113.167969 181.085938 L 113.167969 190.039062 Z M 84.113281 253.242188 C 87.820312 251.09375 92.570312 252.355469 94.71875 256.058594 C 96.867188 259.761719 95.605469 264.511719 91.902344 266.664062 L 12.570312 312.464844 C 8.867188 314.613281 4.113281 313.351562 1.964844 309.648438 C -0.183594 305.945312 1.078125 301.195312 4.78125 299.042969 Z M 83.574219 335.027344 C 79.871094 337.175781 75.121094 335.914062 72.972656 332.210938 C 70.824219 328.507812 72.082031 323.757812 75.789062 321.609375 L 146.839844 280.574219 L 115.585938 262.53125 C 111.90625 260.40625 108.765625 257.730469 106.226562 254.605469 L 100.644531 244.480469 C 99.492188 241.070312 98.898438 237.421875 98.898438 233.613281 L 98.898438 210.144531 L 113.175781 201.898438 L 113.175781 232.84375 L 152.519531 196.339844 C 160.671875 195.527344 168.222656 194.988281 175.171875 194.726562 L 136.421875 230.75 L 206.933594 209.820312 L 224.175781 204.695312 L 215.113281 220.25 C 211.765625 225.992188 208.332031 231.511719 204.824219 236.777344 L 203.945312 238.09375 C 216 235.53125 227.945312 232.398438 239.746094 228.695312 C 256.449219 223.460938 272.777344 217.117188 288.601562 209.710938 C 291.921875 204.214844 294.929688 198.558594 297.617188 192.769531 C 300.519531 186.519531 303.074219 179.992188 305.273438 173.226562 C 308.09375 160.417969 305.796875 147.570312 299.65625 136.941406 C 293.929688 127.011719 284.839844 119.027344 273.453125 114.785156 C 260.53125 121.808594 248.144531 129.734375 236.382812 138.503906 C 219.765625 150.894531 204.421875 164.929688 190.613281 180.421875 L 188.496094 182.792969 L 185.292969 182.800781 C 179.113281 182.832031 172.902344 183.039062 166.675781 183.425781 C 160.339844 183.824219 154.144531 184.394531 148.109375 185.132812 L 130.433594 187.289062 L 141.734375 173.535156 C 153.757812 158.910156 166.742188 145.191406 180.570312 132.46875 C 194.425781 119.722656 209.1875 107.9375 224.738281 97.207031 L 226.484375 96.003906 L 228.570312 95.9375 C 236.230469 95.691406 243.917969 95.914062 251.570312 96.605469 C 258.242188 97.199219 264.925781 98.167969 271.582031 99.492188 C 275.417969 97.351562 279.359375 95.429688 283.375 93.742188 L 283.523438 93.671875 C 294.667969 89.007812 306.382812 86.082031 318.269531 84.945312 C 335.394531 83.3125 352.890625 85.390625 369.496094 91.300781 L 375.222656 93.335938 L 374.121094 99.332031 C 372.058594 110.539062 368.800781 120.945312 364.144531 130.621094 C 359.859375 139.519531 354.394531 147.777344 347.617188 155.453125 L 347.617188 233.589844 C 347.617188 239.710938 346.09375 245.40625 343.246094 250.347656 C 340.40625 255.273438 336.234375 259.429688 330.929688 262.492188 L 330.914062 262.515625 L 285.429688 288.773438 L 239.945312 315.035156 C 234.644531 318.070312 228.960938 319.59375 223.273438 319.59375 L 223.25 319.578125 C 217.5 319.578125 211.804688 318.0625 206.5625 315.042969 L 170.160156 294.023438 L 184.464844 285.761719 L 213.714844 302.644531 C 216.808594 304.429688 220.0625 305.324219 223.25 305.332031 C 226.5 305.316406 229.761719 304.4375 232.804688 302.675781 L 232.820312 302.652344 L 278.304688 276.394531 L 323.789062 250.132812 C 326.828125 248.390625 329.214844 246.011719 330.847656 243.1875 C 332.476562 240.371094 333.339844 237.109375 333.339844 233.605469 L 333.339844 149.878906 L 335.25 147.824219 C 341.914062 140.652344 347.195312 132.867188 351.269531 124.402344 C 354.515625 117.664062 356.996094 110.484375 358.796875 102.832031 C 345.980469 99.113281 332.6875 97.914062 319.617188 99.160156 C 309.355469 100.132812 299.234375 102.632812 289.609375 106.605469 L 289.402344 106.710938 C 298.894531 112.453125 306.605469 120.460938 312.003906 129.8125 L 312.027344 129.828125 C 319.960938 143.566406 322.886719 160.203125 319.09375 176.789062 L 318.9375 177.40625 C 316.613281 184.609375 313.804688 191.753906 310.53125 198.804688 C 307.300781 205.761719 303.660156 212.515625 299.625 219.011719 L 298.507812 220.804688 L 296.617188 221.703125 C 279.527344 229.816406 261.945312 236.699219 244.003906 242.328125 C 226.089844 247.945312 207.710938 252.324219 189.027344 255.425781 L 171.417969 258.34375 L 182.140625 244.089844 C 185.957031 239.023438 189.558594 233.945312 192.921875 228.878906 L 122.246094 249.839844 L 122.730469 250.132812 L 161.132812 272.308594 L 168.214844 276.402344 L 168.9375 276.8125 L 176.652344 281.269531 Z M 83.574219 335.027344 " fill-opacity="1" fill-rule="evenodd"/></g></svg>